<svg xmlns:dc="http://purl.org/dc/elements/1.1/" xmlns:cc="http://creativecommons.org/ns#" xmlns:rdf="http://www.w3.org/1999/02/22-rdf-syntax-ns#" xmlns:svg="http://www.w3.org/2000/svg" xmlns="http://www.w3.org/2000/svg" xmlns:xlink="http://www.w3.org/1999/xlink" id="svg2608" viewBox="0 0 1024 768" height="768px" width="1024px" version="1.1">
  <metadata id="metadata2614">
    <rdf:rdf>
      <cc:work rdf:about="">
        <dc:format>image/svg+xml</dc:format>
        <dc:type rdf:resource="http://purl.org/dc/dcmitype/StillImage"></dc:type>
      </cc:work>
    </rdf:rdf>
  </metadata>
  <defs id="defs2612"></defs>
  <linearGradient spreadMethod="pad" y2="30%" x2="-10%" y1="120%" x1="30%" id="3d_gradient2-logo-f60907bf-843b-4565-990d-ccd606801880">
    <stop id="stop2589" stop-opacity="1" stop-color="#ffffff" offset="0%"></stop>
    <stop id="stop2591" stop-opacity="1" stop-color="#000000" offset="100%"></stop>
  </linearGradient>
  <linearGradient gradientTransform="rotate(-30)" spreadMethod="pad" y2="30%" x2="-10%" y1="120%" x1="30%" id="3d_gradient3-logo-f60907bf-843b-4565-990d-ccd606801880">
    <stop id="stop2594" stop-opacity="1" stop-color="#ffffff" offset="0%"></stop>
    <stop id="stop2596" stop-opacity="1" stop-color="#cccccc" offset="50%"></stop>
    <stop id="stop2598" stop-opacity="1" stop-color="#000000" offset="100%"></stop>
  </linearGradient>
  <g id="logo-group">
    <image xlink:href="" id="container" x="272" y="144" width="480" height="480" style="display: none;" transform="translate(0 0)"></image>
    <g id="logo-center" transform="translate(0 0)">
      <image xlink:href="" id="icon_container" x="0" y="0" style="display: none;"></image>
      <g id="slogan" style="font-style:normal;font-weight:700;font-size:32px;line-height:1;font-family:'Noto Sans';font-variant-ligatures:none;text-align:center;text-anchor:middle" transform="translate(0 0)"></g>
      <g id="title" style="font-style:normal;font-weight:normal;font-size:72px;line-height:1;font-family:'Brandmark Sans 2 Color';font-variant-ligatures:normal;text-align:center;text-anchor:middle" transform="translate(0 0)">
        <g id="path2617" aria-label="N" transform="translate(0 327.70432) translate(178.02899055 -24.088) scale(2.47) translate(-378.593 50.4)"> <path class="c1" d="M88.22705,74.79785l33.62695,50.4043h-11.59277L88.65967,92.36719v32.83496H78.146v-50.4043H88.22705z M121.854,74.79785v38.95508c-7.05664-4.32031-9.86426-12.60107-10.44043-14.61719V74.79785H121.854z" transform="translate(300.447 -125.19785)" stroke-width="0" stroke-linejoin="miter" stroke-miterlimit="2" fill="#3a3c99" stroke="#3a3c99"></path> </g>
        <path id="path2619" style="font-style:normal;font-weight:normal;font-size:72px;line-height:1;font-family:'Brandmark Sans 2 Color';font-variant-ligatures:normal;text-align:center;text-anchor:middle" d="m 462.33912,-34.128 c -3.16799,-3.312 -7.63199,-5.04 -13.248,-5.04 -11.304,0 -18.936,7.992 -18.936,19.872 0,11.88 7.56,19.584 19.296,19.584 6.336,0 11.736,-2.232 15.552,-6.48 l -5.616,-5.832 c -2.52,2.448 -5.688,3.816 -8.99999,3.816 -4.68,0 -8.06401,-2.808 -9.288,-7.704 l -0.14401,-0.648 h 26.424 c 0.36,-7.632 -1.368,-13.68 -5.04,-17.568 z m -5.4,11.808 h -16.128 l 0.072,-0.576 c 0.864,-5.184 4.032,-8.424 8.28,-8.424 4.608,0 7.704,3.456 7.704,8.568 z" stroke-width="0" stroke-linejoin="miter" stroke-miterlimit="2" fill="#3a3c99" stroke="#3a3c99" transform="translate(0 327.70432) translate(305.38742695 3.6550399999999925) scale(2.47) translate(-430.15512 39.168)"></path>
        <path id="path2621" style="font-style:normal;font-weight:normal;font-size:72px;line-height:1;font-family:'Brandmark Sans 2 Color';font-variant-ligatures:normal;text-align:center;text-anchor:middle" d="m 496.44237,-9.864 c -1.79999,0.72 -3.23999,1.08 -4.32,1.08 -1.152,0 -2.088,-0.288 -2.736,-0.936 -0.864,-0.792 -1.296,-2.088 -1.296,-3.888 v -17.784 h 9.79201 v -7.344 h -9.79201 v -9.216 h -10.872 v 9.288 h -5.184 v 7.272 h 5.184 v 19.8 c 0,7.416 4.536,12.024 11.88,12.024 3.312,0 6.768,-0.936 9.36,-2.448 z" stroke-width="0" stroke-linejoin="miter" stroke-miterlimit="2" fill="#3a3c99" stroke="#3a3c99" transform="translate(0 327.70432) translate(408.8291744500001 -18.04144) scale(2.47) translate(-472.03437 47.952)"></path>
        <path id="path2623" style="font-style:normal;font-weight:normal;font-size:72px;line-height:1;font-family:'Brandmark Sans 2 Color';font-variant-ligatures:normal;text-align:center;text-anchor:middle" d="m 555.89525,-38.736 -7.92,27.792 -8.064,-27.792 h -10.656 l -7.848,27.792 -8.064,-27.792 h -11.088 l 13.248,38.592 h 11.16 l 7.704,-26.496 7.704,26.496 h 11.088 l 13.248,-38.592 z" stroke-width="0" stroke-linejoin="miter" stroke-miterlimit="2" fill="#3a3c99" stroke="#3a3c99" transform="translate(0 327.70432) translate(483.4747480500001 4.722079999999998) scale(2.47) translate(-502.25525 38.736)"></path>
        <path id="path2625" style="font-style:normal;font-weight:normal;font-size:72px;line-height:1;font-family:'Brandmark Sans 2 Color';font-variant-ligatures:normal;text-align:center;text-anchor:middle" d="m 588.87238,-39.312 c -5.544,0 -10.51201,1.296 -16.63201,4.248 l 3.6,7.056 c 3.60001,-1.8 7.27201,-2.808 10.22401,-2.808 4.96799,0 7.77599,2.448 7.77599,6.768 v 3.168 c 0,0 -3.096,-3.312 -8.712,-3.312 -8.928,0 -15.48,5.4 -15.48,12.744 0,7.2 4.82401,11.88 12.312,11.88 4.896,0 8.352,-0.792 11.016,-3.96 l 0.936,-1.152 v 4.464 h 10.65601 V -25.56 c -0.072,-8.784 -5.83201,-13.824 -15.768,-13.824 z m 4.96799,26.856 c -0.792,3.456 -4.176,5.256 -8.20799,5.256 -3.60001,0 -5.832,-2.016 -5.832,-5.256 0,-3.168 2.952,-5.76 7.55999,-5.76 3.888,0 6.48,2.232 6.48,2.232 z" stroke-width="0" stroke-linejoin="miter" stroke-miterlimit="2" fill="#3a3c99" stroke="#3a3c99" transform="translate(0 327.70432) translate(649.9357544500001 3.1215199999999967) scale(2.47) translate(-569.64837 39.384)"></path>
        <path id="path2627" style="font-style:normal;font-weight:normal;font-size:72px;line-height:1;font-family:'Brandmark Sans 2 Color';font-variant-ligatures:normal;text-align:center;text-anchor:middle" d="m 638.35887,-38.736 -8.42399,26.424 -9.57601,-26.424 h -11.15999 l 15.336,38.232 -1.008,2.16 c -1.08001,2.304 -2.808,3.456 -5.184,3.456 -1.65601,0 -3.096,-0.576 -4.75201,-1.872 l -4.46399,7.776 c 3.168,2.52 6.336,3.672 10.15199,3.672 6.696,0 11.232,-3.384 13.89601,-10.368 l 15.83999,-42.984 h -10.8 z" stroke-width="0" stroke-linejoin="miter" stroke-miterlimit="2" fill="#3a3c99" stroke="#3a3c99" transform="translate(0 327.70432) translate(747.44767415 4.722079999999998) scale(2.47) translate(-609.12688 38.736)"></path>
       </g>
      <image xlink:href="https://app.brandmark.io/nounpreview/110513.png" id="icon" x="0" y="0" style="display: none;"></image>
    </g>
  </g>
</svg>